# xmcd CD database file
# Copyright (C) 1993-1998 Ti Kan
# 
# Track frame offsets:
#     150
#     14475
#     28802
#     43130
# 
# Disc length: 587 seconds
# 
# Revision: 1
# Processed by: cddbd v1.4b41PL1 Copyright (c) Steve Scherf et al.
# Submitted via: DiscPlay 4.0.3
# 
DISCID=2f024904
DTITLE=Rhett Akins - Black Dog Promo Single
DYEAR=1900
DGENRE=
TTITLE0=Drivin' My Life Away
TTITLE1=Drivin' My Life Away
TTITLE2=Drivin' My Life Away
TTITLE3=Drivin' My Life Away
EXTD=
EXTT0=
EXTT1=
EXTT2=
EXTT3=
PLAYORDER=
